<?xml version="1.0" encoding="UTF-8" standalone="no"?>
<!-- Created with Inkscape (http://www.inkscape.org/) -->

<svg
   xmlns:dc="http://purl.org/dc/elements/1.1/"
   xmlns:cc="http://creativecommons.org/ns#"
   xmlns:rdf="http://www.w3.org/1999/02/22-rdf-syntax-ns#"
   xmlns:svg="http://www.w3.org/2000/svg"
   xmlns="http://www.w3.org/2000/svg"
   xmlns:sodipodi="http://sodipodi.sourceforge.net/DTD/sodipodi-0.dtd"
   xmlns:inkscape="http://www.inkscape.org/namespaces/inkscape"
   width="128"
   height="128"
   viewBox="0 0 36.124445 36.124445"
   version="1.1"
   id="svg8"
   inkscape:version="0.91 r13725"
   sodipodi:docname="media2post.svg">
  <defs
     id="defs2" />
  <sodipodi:namedview
     id="base"
     pagecolor="#ffffff"
     bordercolor="#666666"
     borderopacity="1.0"
     inkscape:pageopacity="0.0"
     inkscape:pageshadow="2"
     inkscape:zoom="3.7681938"
     inkscape:cx="113.88884"
     inkscape:cy="75.987636"
     inkscape:document-units="mm"
     inkscape:current-layer="layer1"
     showgrid="false"
     inkscape:window-width="1778"
     inkscape:window-height="948"
     inkscape:window-x="0"
     inkscape:window-y="50"
     inkscape:window-maximized="1"
     showguides="true"
     inkscape:guide-bbox="true"
     units="px">
    <inkscape:grid
       type="xygrid"
       id="grid4630" />
  </sodipodi:namedview>
  <metadata
     id="metadata5">
    <rdf:RDF>
      <cc:Work
         rdf:about="">
        <dc:format>image/svg+xml</dc:format>
        <dc:type
           rdf:resource="http://purl.org/dc/dcmitype/StillImage" />
        <dc:title />
      </cc:Work>
    </rdf:RDF>
  </metadata>
  <g
     inkscape:label="Laag 1"
     inkscape:groupmode="layer"
     id="layer1"
     transform="translate(0,-260.87554)">
    <text
       xml:space="preserve"
       style="font-style:normal;font-variant:normal;font-weight:normal;font-stretch:normal;font-size:4.21962309px;line-height:1.25;font-family:ding;-inkscape-font-specification:ding;letter-spacing:0px;word-spacing:0px;fill:#000000;fill-opacity:1;stroke:none;stroke-width:0.26458332"
       x="6.0980458"
       y="288.10974"
       id="text4701"
       transform="scale(0.98420722,1.0160462)"><tspan
         sodipodi:role="line"
         id="tspan4699"
         x="6.0980458"
         y="288.10974"
         style="stroke-width:0.26458332">Media2Post</tspan></text>
    <g
       transform="translate(1.4988923e-8,3.5617592)"
       id="g4182">
      <rect
         style="fill:#ffffff;stroke:#000000;stroke-width:1.12888908;stroke-miterlimit:4;stroke-dasharray:none;stroke-opacity:1"
         y="266.45868"
         x="4.7731719"
         height="18.052629"
         width="26.606825"
         id="rect3713-3" />
      <path
         inkscape:connector-curvature="0"
         id="path4520-6"
         d="m 4.6440118,280.95162 5.4246932,-5.33951 2.324868,2.54263 7.362083,-7.24648 5.941329,10.29762 2.06655,-1.52557 3.487302,1.77984"
         style="fill:none;stroke:#000000;stroke-width:1.32291663;stroke-linecap:butt;stroke-linejoin:miter;stroke-miterlimit:4;stroke-dasharray:none;stroke-opacity:1" />
      <ellipse
         ry="1.9492803"
         rx="2.0984569"
         cy="271.56805"
         cx="25.946928"
         id="path4522-7"
         style="fill:#ffd5d5;stroke:#000000;stroke-width:1.05833328;stroke-miterlimit:4;stroke-dasharray:none;stroke-opacity:1" />
      <path
         inkscape:connector-curvature="0"
         id="path4674-5"
         d="m 5.3577863,282.35558 3.921e-4,-1.7696 2.0641655,-1.96214 c 1.1352907,-1.07918 2.1405424,-2.03287 2.2338922,-2.11931 l 0.1697252,-0.15716 1.1990087,1.26564 1.199006,1.26563 0.193002,-0.17325 c 0.106151,-0.0953 1.195338,-1.12516 2.420412,-2.28863 l 2.22741,-2.11539 0.237533,0.29165 0.237531,0.29164 0.185315,-0.0983 c 0.101926,-0.054 0.220059,-0.11994 0.262526,-0.14644 0.06869,-0.0429 0.100518,-0.0299 0.28828,0.11698 l 0.211065,0.16516 0.504888,-0.37718 c 0.277688,-0.20744 0.517766,-0.38143 0.533506,-0.38663 0.01573,-0.005 0.106367,0.13509 0.201394,0.31174 0.203347,0.37803 0.735266,1.21975 0.77081,1.21975 0.01356,0 0.100895,-0.19805 0.194091,-0.44011 l 0.169432,-0.4401 0.186745,0 c 0.181919,0 0.189938,-0.005 0.310241,-0.18785 l 0.123495,-0.18784 0.08095,0.12366 c 0.04453,0.068 1.041197,1.73281 2.21483,3.69953 1.173633,1.96673 2.155018,3.59723 2.180854,3.62333 0.03747,0.0378 0.268056,-0.10995 1.138755,-0.72987 l 1.091777,-0.77733 0.150727,0.0697 c 0.0829,0.0383 0.702821,0.34201 1.377604,0.67482 l 1.226877,0.60511 0,1.20116 0,1.20117 -12.793317,0 -12.7932874,0 z"
         style="fill:#b3b3b3;stroke:#000000;stroke-width:0.56444454;stroke-miterlimit:4;stroke-dasharray:none;stroke-opacity:1" />
    </g>
    <rect
       style="fill:#ffffff;stroke:#808080;stroke-width:0.84200012;stroke-miterlimit:4;stroke-dasharray:none;stroke-opacity:0.45348838"
       id="rect4703-5"
       width="12.999424"
       height="7.9687567"
       x="2.5626898"
       y="266.12799" />
    <g
       id="g4764"
       transform="matrix(0.39240779,0,0,0.4051017,-46.722228,256.28057)">
      <rect
         y="23.225893"
         x="124.56568"
         height="19.671003"
         width="33.127335"
         id="rect4703"
         style="fill:#ffffff;stroke:#000000;stroke-width:2.11249971;stroke-miterlimit:4;stroke-dasharray:none;stroke-opacity:1" />
      <rect
         y="25.355642"
         x="147.60948"
         height="7.4674134"
         width="7.3052883"
         id="rect4705"
         style="fill:#ffffff;stroke:#000000;stroke-width:1.41024399;stroke-miterlimit:4;stroke-dasharray:none;stroke-opacity:1" />
      <path
         inkscape:connector-curvature="0"
         id="path4707"
         d="m 127.27065,30.953777 13.61845,0"
         style="fill:#000000;stroke:#000000;stroke-width:1.09237087;stroke-linecap:butt;stroke-linejoin:miter;stroke-miterlimit:4;stroke-dasharray:none;stroke-opacity:1" />
      <path
         inkscape:connector-curvature="0"
         id="path4707-3"
         d="m 127.27066,34.844763 15.56395,0"
         style="fill:#000000;stroke:#000000;stroke-width:1.16779363;stroke-linecap:butt;stroke-linejoin:miter;stroke-miterlimit:4;stroke-dasharray:none;stroke-opacity:1" />
      <path
         inkscape:connector-curvature="0"
         id="path4707-5"
         d="m 127.27066,38.735749 11.99721,0"
         style="fill:#000000;stroke:#000000;stroke-width:1.02528918;stroke-linecap:butt;stroke-linejoin:miter;stroke-miterlimit:4;stroke-dasharray:none;stroke-opacity:1" />
      <path
         inkscape:connector-curvature="0"
         id="path4707-7"
         d="m 127.27065,26.573475 11.02446,0"
         style="fill:#000000;stroke:#000000;stroke-width:3.31803751;stroke-linecap:butt;stroke-linejoin:miter;stroke-miterlimit:4;stroke-dasharray:none;stroke-opacity:1" />
      <path
         inkscape:connector-curvature="0"
         id="path4747"
         d="m 147.81697,30.670058 1.86443,-2.55346 1.09434,1.256464 1.29699,-0.729559 1.78337,2.026555 0.81062,-0.72956"
         style="fill:none;stroke:#000000;stroke-width:0.66360748px;stroke-linecap:butt;stroke-linejoin:miter;stroke-opacity:1" />
      <ellipse
         ry="0.77009112"
         rx="0.72956002"
         cy="27.265446"
         cx="153.30893"
         id="path4751"
         style="fill:#ffd5d5;stroke:#000000;stroke-width:0.66360748;stroke-miterlimit:4;stroke-dasharray:none;stroke-opacity:1" />
      <path
         transform="scale(0.26458333,0.26458333)"
         inkscape:connector-curvature="0"
         id="path4753"
         d="m 558.96902,119.60727 c 0,-2.04672 0.0282,-3.37015 0.0718,-3.37015 0.0562,0 3.16423,-4.20997 6.37402,-8.63407 l 0.34592,-0.47678 1.93614,2.22505 c 1.06487,1.22378 1.98017,2.24196 2.03399,2.26261 0.0538,0.0207 1.17512,-0.56866 2.49178,-1.30959 2.13374,-1.20073 2.40728,-1.33498 2.51677,-1.23522 0.0676,0.0616 1.58771,1.78328 3.3781,3.82604 1.79039,2.04276 3.29008,3.71654 3.33264,3.71952 0.0426,0.003 0.71016,-0.5633 1.48355,-1.25839 0.7734,-0.69509 1.4193,-1.2638 1.43536,-1.2638 0.0161,0 0.0292,1.99911 0.0292,4.44246 l 0,4.44247 -12.71464,0 -12.71464,0 z"
         style="fill:#cccccc;stroke:#000000;stroke-width:0.19210777;stroke-miterlimit:4;stroke-dasharray:none;stroke-opacity:1" />
    </g>
  </g>
</svg>
